<svg width="144" height="152" viewBox="0 0 144 152" fill="none" xmlns="http://www.w3.org/2000/svg">
<path d="M6.0498 108.481C6.4285 107.942 6.70429 108.144 6.93892 108.609C6.60962 108.786 6.31325 108.749 6.0498 108.481Z" fill="#BBBCBD"/>
<g clip-path="url(#clip0_1_1462)">
<path d="M104.916 39.0375C105.554 38.2431 106.192 37.4528 106.826 36.6584C108.456 34.6044 107.863 32.7604 105.34 32.0113C91.1105 27.784 77.3708 28.776 64.2197 35.8928C61.6389 37.2882 59.1363 38.8317 56.5184 40.153C55.2547 40.791 54.5468 41.4949 54.8184 42.9767C55.0119 44.0222 54.4974 44.5532 53.4601 44.8578C42.3301 48.0972 31.2123 51.3777 20.0658 54.6501C19.6583 53.9791 19.8518 53.2917 19.8518 52.6496C19.8394 37.8562 19.8394 23.0628 19.8435 8.26933C19.8435 2.96361 22.7701 0.0370338 28.1046 0.0329177C51.9412 0.0246854 75.782 -0.0494053 99.6186 0.0740791C106.192 0.107008 112.181 2.67548 117.779 5.91077C139.599 18.5309 149.379 47.8255 139.434 71.0035C133.601 84.6033 122.92 92.9385 109.259 97.8655C104.356 99.6313 99.3387 100.265 94.1606 100.224C85.1174 100.154 76.0742 100.261 67.0352 100.158C65.1376 100.138 64.5243 100.479 64.5408 102.55C64.6519 115.902 64.6025 129.259 64.5943 142.616C64.5943 148.741 61.82 151.515 55.6993 151.519C46.4503 151.528 37.2054 151.548 27.9565 151.495C22.7043 151.466 19.8477 148.523 19.8477 143.32C19.8477 132.635 19.8147 121.949 19.8806 111.268C19.8888 109.769 19.5719 109.243 17.9954 109.321C15.4681 109.44 12.9408 109.201 10.4628 108.609C10.2282 108.139 9.95655 107.942 9.57375 108.481C9.31032 108.456 9.051 108.436 8.78757 108.411C8.61058 107.44 7.70091 107.547 7.06702 107.23C5.84864 106.625 4.6138 106.053 3.86054 104.797C2.22643 102.064 3.93052 99.9894 5.2765 97.9314C6.62659 95.8609 8.68878 94.4203 10.4423 92.7038C14.4473 88.7853 18.8804 85.3606 23.2064 81.8166C29.0308 77.046 35.4314 73.1192 42.0296 69.534C46.2898 67.2167 50.7064 65.208 55.1724 63.3063C55.6046 63.1211 55.9339 63.0182 56.1809 63.5204C55.8104 64.0431 55.44 64.57 54.8431 65.4138H60.5358C60.7869 67.5007 60.4082 69.5217 59.6796 71.4522C59.0745 73.0534 59.6096 73.465 61.1244 73.148C66.1173 72.0943 70.2046 69.6205 72.7031 65.101C73.6622 63.3598 74.7735 62.8659 76.6093 62.94C81.9932 63.154 87.2619 62.2773 92.2713 60.3633C99.4992 57.6013 104.945 52.4726 109.695 46.5248C111.329 44.4791 111.16 42.8573 108.987 41.3631C107.703 40.4823 106.279 39.8114 104.916 39.0416V39.0375ZM54.0858 32.4435C50.6405 32.4435 48.2203 33.3902 46.9936 35.0078C46.3351 35.8763 46.4009 36.3209 47.4464 36.823C51.1098 38.593 54.6703 39.5809 58.0825 36.2879C58.6547 35.7364 59.4697 35.4359 60.1735 35.0202C60.5152 34.8185 60.9844 34.6868 60.9433 34.1887C60.9021 33.6824 60.3999 33.6042 60.0336 33.4972C58.0085 32.9045 55.971 32.3447 54.0899 32.4435H54.0858Z" fill="#FDFDFD"/>
<path d="M104.917 39.0375C106.279 39.8031 107.703 40.4781 108.987 41.359C111.161 42.8531 111.33 44.4749 109.695 46.5206C104.945 52.4685 99.4997 57.6013 92.2718 60.3591C87.2624 62.2731 81.9938 63.1499 76.6098 62.9358C74.774 62.8617 73.6668 63.3598 72.7036 65.0968C70.2092 69.6163 66.1178 72.0901 61.1249 73.1439C59.6101 73.4649 59.0792 73.0492 59.6801 71.448C60.4087 69.5175 60.7874 67.4965 60.5363 65.4096C65.027 64.5123 67.8589 61.4705 69.8141 57.6754C70.8061 55.7531 72.1973 55.3909 73.9879 55.1193C82.4671 53.8309 90.4977 51.3859 97.3964 45.9938C100.101 43.8781 102.369 41.3137 104.908 39.0375H104.917Z" fill="#BBBCBD"/>
<path d="M9.57373 108.481C9.95242 107.942 10.2282 108.144 10.4628 108.609C10.1335 108.786 9.83716 108.749 9.57373 108.481Z" fill="#BBBCBD"/>
<path d="M19.8813 110.032V84.0308L8.29433 91.8144L1.7085 100.458V103.982L4.39634 106.381L8.78827 108.411L19.8813 110.032Z" fill="#E4E6E8"/>
<path d="M56.1816 63.5202C55.9347 63.018 55.6013 63.1209 55.1732 63.3061C50.7072 65.2078 46.2905 67.2164 42.0303 69.5338C35.4321 73.119 29.0357 77.0458 23.2072 81.8164C18.8811 85.3604 14.448 88.7851 10.443 92.7036C8.68954 94.4201 6.62735 95.8566 5.27725 97.9311C3.93539 99.9892 2.2313 102.064 3.8613 104.797C4.61455 106.056 5.8494 106.624 7.06778 107.23C7.70166 107.546 8.60721 107.439 8.78833 108.411C6.79199 108.197 4.93561 107.526 3.21506 106.53C0.317295 104.854 -0.621186 102.438 0.399618 99.2236C1.77441 94.8934 4.91915 91.8187 7.97333 88.6739C20.9063 75.3458 36.4694 65.7182 52.6171 56.9096C53.5761 56.3869 54.5434 55.8765 55.4819 55.3167C57.0337 54.3947 58.2479 55.2796 59.4252 56.074C60.7588 56.9714 59.6351 57.9016 59.2729 58.7372C58.5114 60.4948 57.4124 62.0589 56.1816 63.5243V63.5202Z" fill="#BBBCBD"/>
</g>
<defs>
<clipPath id="clip0_1_1462">
<rect width="143.328" height="151.532" fill="white"/>
</clipPath>
</defs>
</svg>
